<svg id="Canvas" xmlns="http://www.w3.org/2000/svg" viewBox="0 0 2395.25 1012.44"><defs><style>.cls-1{fill:#e3e8ec;}.cls-2{fill:#d5d8db;}.cls-3{fill:#999;}.cls-4{fill:#c1272d;}.cls-5{fill:#fff;}</style></defs><title>airplane_canada</title><g id="vector_airplane"><path class="cls-1" d="M170,1035c-2-20-22-216-22-216l-8-157c-3.77-44.15,4-74,46-80,11-4,75-5,115,0,55.5,16.33,79,29,107,81,2.62,15.75,43.46,93.92,58,135,2.08,5.87,3,15,10,14l311-23s10,1-1-10c0,0-146-180-161-209s19-41,19-41H882c9,0,12,5,12,5s290,171,360,214c6,7,13,3,13,3s661-52,677-54c70-7,143,35,165,74,5,4,8,5,9,11,13,28,67,84,72,97s8,10,8,10,260,70,278,73,117,72,8,120c-55,19-586,141-1024,120-30,17-557,326-563,332s-25,6-25,6H658c-56,0-28-51-22-59,13-16,217-278,217-278s-400,4-470,0C375,1206,223,1181,170,1035Z" transform="translate(-139.16 -528.45)"/><path class="cls-2" d="M149,774c35,183,218,367,769,357,377-7,992,8,1553-163,12-6,25,2,25,2s76,54,4,105c-58,19-536,145-1043,127.64C1301,1195,488,1210,387,1203,101,1145,175,938,149,774Z" transform="translate(-139.16 -528.45)"/><path class="cls-3" d="M1905,828c-20,5,0,25,0,25s31,45,53,52c29,11,51,18,107,10,18-7,110-23,126-23,10-4,1-9,0-11-31-29-62-84-74-98-2-5-7-9-15-7C2092,782,1925,823,1905,828Z" transform="translate(-139.16 -528.45)"/><path class="cls-4" d="M913,1131a10.17,10.17,0,0,0-10,7c-4.45,5.68-262,337-267,343-32,46,6,57,22,59,13,2,219.47,0,219.47,0s12.53,1,35.53-16c16-9,655-387,660-390,4-4-1-3-5-3C1559,1130,921,1131,913,1131Z" transform="translate(-139.16 -528.45)"/><path class="cls-4" d="M648,529c-46,3-19,50-19,50S783,778,787,783s13,5,13,5,448-36,456-37c10-1-5-7-5-7S903,542,894,534a21.06,21.06,0,0,0-19-5Z" transform="translate(-139.16 -528.45)"/><ellipse class="cls-3" cx="597.84" cy="427.55" rx="70" ry="63"/><ellipse class="cls-3" cx="901.84" cy="416.55" rx="70" ry="63"/><ellipse class="cls-3" cx="1214.84" cy="406.55" rx="70" ry="63"/><ellipse class="cls-3" cx="1521.84" cy="389.55" rx="70" ry="63"/></g><g id="vector_CA-Flag"><path class="cls-4" d="M193.55,687.47,240,685.92l2,1.79,89-3,1.86-1.92,46.41-1.56,3.1,92.68-46.41,1.56-2-1.8-89,3-1.85,1.92-46.42,1.56Z" transform="translate(-139.16 -528.45)"/><path class="cls-5" d="M240,685.92l92.84-3.1,3.1,92.83-92.84,3.11Zm51,84-1.43-16.67a1.83,1.83,0,0,1,1.69-2,1.7,1.7,0,0,1,.39,0l16.71,2.36-2.45-6.11a1.28,1.28,0,0,1,.34-1.43l17.71-15.34L319.72,729a1.25,1.25,0,0,1-.71-1.51l3.22-11.18-10.4,2.57a1.24,1.24,0,0,1-1.44-.68l-2.19-4.71-7.89,9a1.25,1.25,0,0,1-1.77.11,1.23,1.23,0,0,1-.41-1.14L301.39,701l-6.2,3.87a1.26,1.26,0,0,1-1.74-.39.25.25,0,0,0,0-.07L286.57,692l-6,12.83a1.26,1.26,0,0,1-1.67.61l-.07,0L272.38,702,277,722.17a1.26,1.26,0,0,1-2.11,1.17l-8.48-8.5-1.87,4.84a1.25,1.25,0,0,1-1.39.78l-10.55-1.87,4,10.94a1.25,1.25,0,0,1-.6,1.55l-4,2,18.69,14.13a1.26,1.26,0,0,1,.44,1.4l-2,6.27,16.52-3.48a1.83,1.83,0,0,1,2.17,1.43,1.72,1.72,0,0,1,0,.39L287.44,770Z" transform="translate(-139.16 -528.45)"/></g></svg>